%FSTAX24Y24*%
%MOIN*%
%SFA1B1*%

%IPPOS*%
%ADD15C,0.010000*%
%ADD16C,0.025000*%
%ADD17C,0.059370*%
%ADD18R,0.059370X0.059370*%
%ADD19C,0.072050*%
%ADD20C,0.032000*%
%ADD21R,0.047240X0.047240*%
%LNprobe-1*%
%LPD*%
G36*
X005075Y011736D02*
X005147Y011707D01*
X005211Y011664*
X005266Y011609*
X005309Y011544*
X005339Y011473*
X005354Y011397*
Y011358*
Y010265*
X005293Y010262*
X005174Y010239*
X005062Y010192*
X004961Y010125*
X004875Y010039*
X004807Y009938*
X00476Y009825*
X004737Y009706*
Y009584*
X00476Y009465*
X004807Y009353*
X004875Y009252*
X004961Y009166*
X005062Y009098*
X005174Y009052*
X005293Y009028*
X005354Y009025*
Y0*
X0*
Y009025*
X00006Y009028*
X00018Y009052*
X000292Y009098*
X000393Y009166*
X000479Y009252*
X000546Y009353*
X000593Y009465*
X000617Y009584*
Y009706*
X000593Y009825*
X000546Y009938*
X000479Y010039*
X000393Y010125*
X000292Y010192*
X00018Y010239*
X00006Y010262*
X0Y010265*
Y011358*
Y011397*
X000015Y011473*
X000044Y011544*
X000087Y011609*
X000142Y011664*
X000207Y011707*
X000278Y011736*
X000354Y011752*
X004999*
X005075Y011736*
G37*
%LNprobe-2*%
%LPC*%
G36*
X0027Y011564D02*
X002579Y011548D01*
X002467Y011502*
X002371Y011428*
X002298Y011332*
X002251Y01122*
X002235Y0111*
X002251Y010979*
X002298Y010867*
X002371Y010771*
X002467Y010698*
X002579Y010651*
X0027Y010635*
X00282Y010651*
X002932Y010698*
X003028Y010771*
X003102Y010867*
X003148Y010979*
X003164Y0111*
X003148Y01122*
X003102Y011332*
X003028Y011428*
X002932Y011502*
X00282Y011548*
X0027Y011564*
G37*
G36*
X00275Y009557D02*
Y00915D01*
X003157*
X003148Y00922*
X003102Y009332*
X003028Y009428*
X002932Y009502*
X00282Y009548*
X00275Y009557*
G37*
G36*
X00265D02*
X002579Y009548D01*
X002467Y009502*
X002371Y009428*
X002298Y009332*
X002251Y00922*
X002242Y00915*
X00265*
Y009557*
G37*
G36*
X003157Y00905D02*
X00275D01*
Y008642*
X00282Y008651*
X002932Y008698*
X003028Y008771*
X003102Y008867*
X003148Y008979*
X003157Y00905*
G37*
G36*
X00265D02*
X002242D01*
X002251Y008979*
X002298Y008867*
X002371Y008771*
X002467Y008698*
X002579Y008651*
X00265Y008642*
Y00905*
G37*
G36*
X002576Y006086D02*
X001903D01*
Y005413*
X002087*
Y00511*
X002098Y005051*
X002131Y005001*
X002483Y00465*
X002477Y00461*
X002486Y004542*
X002512Y004478*
X002554Y004424*
X002608Y004382*
X002672Y004356*
X00274Y004347*
X002807Y004356*
X002871Y004382*
X002925Y004424*
X002967Y004478*
X002993Y004542*
X003002Y00461*
X002993Y004677*
X002967Y004741*
X002925Y004795*
X002871Y004837*
X002807Y004863*
X00274Y004872*
X002699Y004866*
X002392Y005173*
Y005413*
X002576*
Y006086*
G37*
G36*
X0028Y004102D02*
Y003758D01*
X003143*
X003136Y003811*
X003096Y003908*
X003033Y003991*
X00295Y004054*
X002853Y004094*
X0028Y004102*
G37*
G36*
X0027D02*
X002646Y004094D01*
X002549Y004054*
X002467Y003991*
X002403Y003908*
X002363Y003811*
X002356Y003758*
X0027*
Y004102*
G37*
G36*
X003143Y003658D02*
X0028D01*
Y003314*
X002853Y003321*
X00295Y003361*
X003033Y003425*
X003096Y003508*
X003136Y003604*
X003143Y003658*
G37*
G36*
X0027D02*
X002356D01*
X002363Y003604*
X002403Y003508*
X002467Y003425*
X002549Y003361*
X002646Y003321*
X0027Y003314*
Y003658*
G37*
G36*
X002162Y004105D02*
X001368D01*
Y003311*
X002162*
Y004105*
G37*
G36*
X0027Y007564D02*
X002579Y007548D01*
X002467Y007502*
X002371Y007428*
X002298Y007332*
X002251Y00722*
X002235Y0071*
X002251Y006979*
X002298Y006867*
X002371Y006771*
X002467Y006698*
X002579Y006651*
X0027Y006635*
X002711Y006637*
X002837Y00651*
Y006086*
X00273*
Y005413*
X003078*
X003504Y004987*
Y004032*
X003451Y003991*
X003387Y003908*
X003347Y003811*
X003334Y003708*
X003347Y003604*
X003387Y003508*
X003451Y003425*
X003534Y003361*
X00363Y003321*
X003734Y003308*
X003837Y003321*
X003934Y003361*
X004017Y003425*
X00408Y003508*
X00412Y003604*
X004134Y003708*
X00412Y003811*
X00408Y003908*
X004017Y003991*
X003963Y004032*
Y005082*
X003946Y00517*
X003896Y005244*
X003403Y005738*
Y006086*
X003296*
Y006605*
X003278Y006693*
X003229Y006768*
X00311Y006887*
X003148Y006979*
X003164Y0071*
X003148Y00722*
X003102Y007332*
X003028Y007428*
X002932Y007502*
X00282Y007548*
X0027Y007564*
G37*
%LNprobe-3*%
%LPD*%
G54D15*
X00224Y00511D02*
X00274Y00461D01*
X00224Y00511D02*
Y00575D01*
G54D16*
X003066Y00575D02*
X003734Y005082D01*
Y003708D02*
Y005082D01*
X003066Y00575D02*
Y006605D01*
X0027Y006972D02*
Y0071D01*
Y006972D02*
X003066Y006605D01*
G54D17*
X003734Y003708D03*
X00275D03*
G54D18*
X001765Y003708D03*
G54D19*
X0027Y0111D03*
Y0091D03*
Y0071D03*
G54D20*
X00274Y00461D03*
G54D21*
X00224Y00575D03*
X003066D03*
M02*