%FSTAX24Y24*%
%MOIN*%
%SFA1B1*%

%IPPOS*%
%ADD11C,0.005910*%
%ADD13C,0.006000*%
%ADD22C,0.011810*%
%ADD23C,0.003940*%
%LNprobe-1*%
%LPD*%
G36*
X000762Y011504D02*
X000764Y011498D01*
X000765Y011496*
X000766Y011494*
X000767Y011492*
X000767Y011492*
X00077Y011484*
X000771Y01148*
X000772Y011477*
X000773Y011474*
X000774Y011472*
X000774Y01147*
Y01147*
X000776Y011461*
X000777Y011457*
X000777Y011453*
X000778Y01145*
X000779Y011448*
X000779Y011446*
Y011446*
X00078Y011436*
X00078Y011432*
Y011428*
X000781Y011425*
Y011421*
X00078Y011409*
X000779Y011398*
X000777Y011388*
X000776Y011384*
X000775Y01138*
X000775Y011377*
X000774Y011374*
X000773Y011371*
X000772Y011368*
X000772Y011367*
X000771Y011365*
X000771Y011364*
Y011364*
X000766Y011355*
X000762Y011347*
X000757Y011341*
X000753Y011335*
X000749Y011331*
X000746Y011327*
X000743Y011325*
X000743Y011324*
X000743*
X000736Y011319*
X000729Y011314*
X000722Y01131*
X000715Y011306*
X00071Y011304*
X000707Y011303*
X000705Y011302*
X000704Y011301*
X000703Y011301*
X000702Y0113*
X000701*
X000692Y011298*
X000684Y011296*
X000675Y011294*
X000667Y011293*
X000664Y011293*
X000661Y011293*
X000658*
X000656Y011292*
X000654*
X000653*
X000652*
X000652*
X000368*
Y011504*
X000416*
Y011349*
X000652*
X000659Y011349*
X000665Y01135*
X000672Y011351*
X000678Y011352*
X000683Y011353*
X000688Y011355*
X000692Y011357*
X000696Y011358*
X0007Y01136*
X000703Y011362*
X000706Y011363*
X000708Y011365*
X000709Y011366*
X00071Y011367*
X000711Y011367*
X000712Y011368*
X000715Y011371*
X000718Y011375*
X000721Y011379*
X000723Y011384*
X000725Y011388*
X000727Y011392*
X00073Y011401*
X00073Y011405*
X000731Y011408*
X000731Y011412*
X000732Y011414*
X000732Y011417*
Y01142*
X000732Y011429*
X000731Y011437*
X00073Y011445*
X000728Y011452*
X000726Y011458*
X000726Y011461*
X000725Y011463*
X000725Y011464*
X000724Y011466*
X000724Y011467*
Y011467*
X000721Y011476*
X000717Y011484*
X000714Y011491*
X00071Y011497*
X000707Y011502*
X000705Y011504*
X000704Y011506*
X000703Y011507*
X000703Y011509*
X000702Y011509*
Y01151*
X000758*
X000762Y011504*
G37*
G36*
X001304Y011454D02*
X001158D01*
Y011403*
X001157Y011388*
X001157Y011381*
X001156Y011374*
X001155Y011368*
X001154Y011362*
X001153Y011356*
X001152Y011351*
X001151Y011346*
X00115Y011342*
X001149Y011339*
X001147Y011336*
X001147Y011334*
X001146Y011332*
X001146Y011331*
Y011331*
X001141Y011319*
X001136Y01131*
X001131Y011301*
X001128Y011297*
X001125Y011294*
X001123Y011291*
X001121Y011288*
X001119Y011286*
X001117Y011284*
X001116Y011282*
X001115Y011281*
X001115Y011281*
X001114Y01128*
X001107Y011273*
X001099Y011267*
X001092Y011262*
X001085Y011258*
X001079Y011255*
X001077Y011254*
X001075Y011253*
X001073Y011252*
X001072Y011251*
X001071Y011251*
X00107*
X001061Y011248*
X001052Y011245*
X001044Y011244*
X001036Y011242*
X001033Y011242*
X00103Y011242*
X001027*
X001025Y011241*
X001023*
X001022*
X001021*
X001021*
X001009Y011242*
X000998Y011243*
X000992Y011244*
X000988Y011245*
X000983Y011247*
X000979Y011248*
X000976Y011249*
X000973Y01125*
X00097Y011251*
X000967Y011252*
X000966Y011253*
X000964Y011253*
X000964Y011254*
X000963*
X000955Y011259*
X000947Y011265*
X00094Y01127*
X000935Y011276*
X00093Y011281*
X000927Y011284*
X000926Y011286*
X000925Y011287*
X000924Y011287*
Y011288*
X000919Y011296*
X000915Y011304*
X000911Y011312*
X000908Y01132*
X000906Y011324*
X000905Y011327*
X000905Y011329*
X000904Y011332*
X000903Y011334*
X000903Y011335*
X000903Y011336*
Y011337*
X0009Y011347*
X000898Y011358*
X000897Y011367*
X000896Y011376*
Y01138*
X000896Y011384*
Y011387*
X000896Y011389*
Y01151*
X001304*
Y011454*
G37*
G36*
Y011089D02*
X001103D01*
X001096Y011083*
X00109Y011078*
X001084Y011074*
X001079Y01107*
X001075Y011066*
X001073Y011063*
X001071Y011062*
X00107Y011061*
X001065Y011056*
X001061Y011052*
X001057Y011047*
X001054Y011044*
X001051Y011041*
X001049Y011038*
X001048Y011037*
X001048Y011036*
X001045Y011032*
X001042Y011028*
X00104Y011024*
X001039Y01102*
X001037Y011017*
X001036Y011015*
X001035Y011014*
Y011013*
X001034Y011009*
X001033Y011005*
X001032Y011002*
X001032Y010998*
Y010995*
X001031Y010993*
Y010991*
X001032Y010987*
X001032Y010983*
X001034Y010975*
X001037Y010969*
X001041Y010963*
X001044Y010959*
X001047Y010956*
X001049Y010954*
X00105Y010954*
X00105*
X001054Y010951*
X001058Y010949*
X001067Y010946*
X001077Y010944*
X001087Y010943*
X001092Y010942*
X001096Y010942*
X0011*
X001103Y010941*
X001106*
X001108*
X00111*
X00111*
Y010886*
X001099*
X001088Y010886*
X001078Y010887*
X001069Y010889*
X001061Y010891*
X001053Y010893*
X001046Y010895*
X00104Y010897*
X001034Y0109*
X00103Y010902*
X001026Y010904*
X001022Y010906*
X00102Y010907*
X001018Y010909*
X001017Y010909*
X001016Y01091*
X001011Y010914*
X001006Y01092*
X001001Y010926*
X000998Y010932*
X000995Y010938*
X000992Y010944*
X00099Y01095*
X000988Y010956*
X000987Y010962*
X000986Y010967*
X000985Y010971*
X000985Y010976*
Y010979*
X000984Y010981*
Y010989*
X000985Y010994*
X000987Y011004*
X000989Y011013*
X000992Y011021*
X000993Y011025*
X000995Y011028*
X000996Y011031*
X000997Y011033*
X000998Y011035*
X000999Y011037*
X000999Y011038*
X001Y011038*
X001003Y011043*
X001006Y011048*
X001014Y011058*
X001022Y011067*
X00103Y011075*
X001033Y011079*
X001037Y011083*
X00104Y011086*
X001043Y011088*
X001045Y01109*
X001047Y011091*
X001048Y011092*
X001048Y011093*
X00099Y011095*
Y011144*
X001304*
Y011089*
G37*
G36*
X000776Y011093D02*
X000776Y011079D01*
X000775Y011066*
X000774Y01106*
X000774Y011054*
X000773Y011049*
X000772Y011044*
X000772Y011039*
X000771Y011036*
X000771Y011032*
X00077Y011029*
X000769Y011027*
X000769Y011025*
X000769Y011024*
Y011024*
X000766Y011013*
X000763Y011002*
X000759Y010993*
X000757Y010989*
X000756Y010985*
X000754Y010982*
X000753Y010979*
X000751Y010976*
X00075Y010974*
X00075Y010972*
X000749Y010971*
X000748Y01097*
Y01097*
X000743Y010962*
X000738Y010954*
X000732Y010947*
X000727Y010942*
X000723Y010937*
X000719Y010934*
X000718Y010932*
X000717Y010931*
X000716Y010931*
X000716Y010931*
X000709Y010925*
X000701Y01092*
X000694Y010915*
X000688Y010912*
X000682Y010909*
X00068Y010908*
X000678Y010907*
X000676Y010906*
X000675Y010905*
X000674Y010905*
X000674*
X000665Y010902*
X000656Y010898*
X000648Y010896*
X00064Y010894*
X000637Y010893*
X000633Y010893*
X000631Y010892*
X000628Y010891*
X000627Y010891*
X000625*
X000624Y01089*
X000624*
X000614Y010889*
X000604Y010888*
X000594Y010887*
X000586Y010886*
X000582Y010886*
X000578*
X000575Y010886*
X000572*
X00057*
X000569*
X000568*
X000568*
X000549Y010886*
X000532Y010888*
X000516Y01089*
X000501Y010893*
X000488Y010897*
X000475Y010901*
X000464Y010905*
X000454Y010909*
X000445Y010914*
X000438Y010918*
X000432Y010922*
X000426Y010926*
X000422Y010928*
X000419Y010931*
X000418Y010932*
X000417Y010933*
X000408Y010942*
X000401Y010953*
X000394Y010963*
X000388Y010975*
X000384Y010987*
X00038Y010999*
X000376Y011011*
X000374Y011022*
X000372Y011033*
X00037Y011043*
X000369Y011052*
X000369Y011056*
X000368Y01106*
X000368Y011063*
Y011069*
X000368Y011071*
Y011181*
X000776*
Y011093*
G37*
G36*
Y010773D02*
X000589D01*
Y010601*
X000776*
Y010545*
X000368*
Y010601*
X00054*
Y010773*
X000368*
Y010828*
X000776*
Y010773*
G37*
G36*
X001163Y010826D02*
X001176Y010825D01*
X001182Y010824*
X001188Y010823*
X001193Y010822*
X001198Y010821*
X001203Y01082*
X001206Y01082*
X00121Y010819*
X001213Y010818*
X001215Y010818*
X001217Y010817*
X001218Y010817*
X001218*
X001229Y010812*
X001239Y010808*
X001247Y010803*
X001251Y010801*
X001255Y010799*
X001258Y010797*
X001261Y010795*
X001263Y010793*
X001265Y010792*
X001267Y01079*
X001268Y010789*
X001268Y010789*
X001269Y010788*
X001276Y010781*
X001282Y010774*
X001287Y010766*
X001292Y010759*
X001295Y010752*
X001296Y01075*
X001297Y010748*
X001298Y010745*
X001299Y010744*
X001299Y010743*
Y010743*
X001303Y010733*
X001305Y010722*
X001307Y010712*
X001308Y010703*
X001309Y010698*
X001309Y010694*
X001309Y010691*
Y010688*
X00131Y010686*
Y010682*
X001309Y010669*
X001308Y010658*
X001307Y010652*
X001306Y010647*
X001305Y010642*
X001304Y010638*
X001303Y010634*
X001302Y01063*
X001301Y010627*
X001299Y010624*
X001299Y010622*
X001298Y010621*
X001298Y01062*
Y01062*
X001293Y010609*
X001287Y0106*
X001282Y010592*
X001276Y010585*
X001274Y010582*
X001271Y01058*
X001269Y010578*
X001268Y010576*
X001266Y010574*
X001265Y010573*
X001264Y010573*
X001264Y010572*
X001255Y010565*
X001247Y010559*
X001238Y010554*
X00123Y01055*
X001226Y010548*
X001222Y010547*
X001219Y010546*
X001217Y010545*
X001215Y010543*
X001213Y010543*
X001212Y010542*
X001212*
X0012Y010539*
X001188Y010537*
X001177Y010534*
X001172Y010534*
X001167Y010533*
X001162Y010533*
X001158*
X001154Y010532*
X001151Y010532*
X001148*
X001146*
X001145*
X001145*
X001131Y010532*
X001118Y010533*
X001111Y010534*
X001106Y010535*
X001101Y010536*
X001096Y010537*
X001091Y010538*
X001087Y010539*
X001084Y01054*
X001081Y01054*
X001079Y010541*
X001077Y010542*
X001076Y010542*
X001076*
X001065Y010546*
X001056Y010551*
X001047Y010555*
X001043Y010558*
X00104Y01056*
X001036Y010562*
X001034Y010564*
X001031Y010566*
X001029Y010567*
X001028Y010569*
X001027Y01057*
X001026Y01057*
X001026Y010571*
X001019Y010578*
X001013Y010585*
X001007Y010593*
X001003Y0106*
X001Y010606*
X000998Y010609*
X000997Y010611*
X000996Y010613*
X000996Y010615*
X000995Y010615*
Y010616*
X000992Y010626*
X000989Y010636*
X000987Y010647*
X000986Y010656*
X000985Y01066*
X000985Y010664*
X000985Y010667*
X000984Y010671*
Y010676*
X000985Y010689*
X000986Y010701*
X000987Y010706*
X000988Y010711*
X000989Y010716*
X00099Y010721*
X000992Y010725*
X000993Y010728*
X000994Y010732*
X000994Y010734*
X000996Y010736*
X000996Y010738*
X000997Y010739*
Y010739*
X001001Y010749*
X001007Y010758*
X001013Y010766*
X001018Y010773*
X001021Y010776*
X001023Y010779*
X001025Y010781*
X001027Y010783*
X001028Y010784*
X00103Y010785*
X00103Y010786*
X001031Y010786*
X001039Y010793*
X001048Y010799*
X001056Y010804*
X001065Y010809*
X001068Y01081*
X001072Y010812*
X001075Y010813*
X001077Y010814*
X001079Y010815*
X001081Y010816*
X001082Y010816*
X001082*
X001094Y01082*
X001106Y010822*
X001117Y010824*
X001122Y010825*
X001127Y010825*
X001132Y010826*
X001136*
X00114Y010826*
X001143Y010826*
X001145*
X001147*
X001149*
X001149*
X001163Y010826*
G37*
G36*
X00129Y010443D02*
X001293Y010432D01*
X001296Y010423*
X001298Y010414*
X001299Y01041*
X0013Y010407*
X001301Y010404*
X001302Y010401*
X001302Y010399*
X001302Y010397*
X001303Y010396*
Y010396*
X001304Y010385*
X001306Y010375*
X001306Y010365*
X001307Y010356*
X001307Y010353*
Y01035*
X001308Y010346*
Y010339*
X001307Y010326*
X001306Y010314*
X001305Y010308*
X001304Y010303*
X001303Y010298*
X001302Y010294*
X001301Y01029*
X0013Y010286*
X001299Y010283*
X001298Y01028*
X001298Y010278*
X001297Y010276*
X001297Y010275*
Y010275*
X001292Y010265*
X001287Y010255*
X001281Y010247*
X001276Y01024*
X001273Y010237*
X001271Y010234*
X001269Y010232*
X001267Y01023*
X001266Y010229*
X001265Y010228*
X001264Y010227*
X001264Y010227*
X001255Y01022*
X001246Y010213*
X001238Y010208*
X00123Y010204*
X001226Y010202*
X001222Y010201*
X001219Y010199*
X001217Y010198*
X001214Y010197*
X001213Y010197*
X001212Y010196*
X001212*
X0012Y010192*
X001188Y01019*
X001176Y010188*
X00117Y010187*
X001165Y010186*
X00116Y010186*
X001155Y010186*
X001152Y010185*
X001148Y010185*
X001145*
X001143*
X001142*
X001142*
X001128Y010185*
X001116Y010186*
X001111Y010187*
X001106Y010187*
X001101Y010188*
X001096Y010189*
X001092Y010189*
X001088Y01019*
X001085Y01019*
X001082Y010191*
X00108Y010191*
X001078Y010192*
X001077Y010192*
X001077*
X001067Y010195*
X001057Y010198*
X001049Y010202*
X001041Y010205*
X001038Y010207*
X001035Y010208*
X001033Y010209*
X001031Y01021*
X00103Y010211*
X001028Y010212*
X001028Y010213*
X001027*
X00102Y010218*
X001014Y010224*
X001008Y010229*
X001004Y010235*
X001Y01024*
X000998Y010243*
X000997Y010245*
X000996Y010246*
X000996Y010246*
Y010247*
X000992Y010254*
X000989Y010263*
X000987Y01027*
X000986Y010278*
X000985Y010284*
X000985Y010287*
X000984Y01029*
Y010294*
X000985Y010305*
X000986Y010316*
X000989Y010326*
X00099Y01033*
X000991Y010334*
X000992Y010338*
X000993Y010341*
X000994Y010344*
X000996Y010347*
X000996Y010348*
X000997Y01035*
X000998Y010351*
Y010351*
X001Y010356*
X001003Y010361*
X00101Y01037*
X001017Y010379*
X001025Y010386*
X001028Y01039*
X001031Y010393*
X001034Y010395*
X001037Y010397*
X001039Y010399*
X001041Y010401*
X001042Y010401*
X001042Y010402*
X000984Y010399*
X000862*
Y010453*
X001286*
X00129Y010443*
G37*
G36*
X001162Y010115D02*
X001175Y010114D01*
X00118Y010113*
X001186Y010112*
X001192Y010111*
X001196Y01011*
X001201Y01011*
X001205Y010109*
X001208Y010108*
X001211Y010108*
X001213Y010107*
X001215Y010107*
X001216Y010106*
X001216*
X001227Y010102*
X001237Y010098*
X001246Y010094*
X00125Y010091*
X001253Y010089*
X001256Y010087*
X001259Y010085*
X001261Y010083*
X001263Y010082*
X001265Y010081*
X001266Y01008*
X001267Y010079*
X001267Y010079*
X001275Y010072*
X001281Y010064*
X001286Y010056*
X001291Y010048*
X001294Y010041*
X001296Y010038*
X001297Y010036*
X001298Y010034*
X001298Y010032*
X001299Y010031*
Y010031*
X001302Y01002*
X001305Y010008*
X001307Y009996*
X001308Y009985*
X001309Y00998*
X001309Y009976*
X001309Y009972*
Y009968*
X00131Y009965*
Y009962*
X001309Y00995*
X001309Y00994*
X001308Y00993*
X001308Y009926*
X001307Y009921*
X001307Y009918*
X001307Y009914*
Y009911*
X001306Y009908*
X001306Y009906*
X001306Y009905*
Y009904*
X001304Y009893*
X001303Y009884*
X001301Y009875*
X001299Y009868*
X001298Y009865*
X001298Y009862*
X001297Y009859*
X001296Y009857*
X001296Y009855*
X001296Y009854*
X001295Y009854*
Y009853*
X001251*
X001253Y009861*
X001254Y009865*
X001254Y009868*
X001255Y009871*
X001256Y009873*
X001256Y009874*
Y009875*
X001258Y009884*
X001258Y009888*
X001259Y009892*
X00126Y009895*
X00126Y009898*
X00126Y009899*
Y0099*
X001261Y00991*
X001262Y009914*
X001262Y009918*
X001263Y009921*
Y009924*
X001263Y009926*
Y009927*
X001264Y009937*
Y009941*
X001264Y009945*
Y009954*
X001264Y009963*
X001263Y009972*
X001262Y00998*
X00126Y009987*
X001258Y009994*
X001256Y010001*
X001254Y010006*
X001251Y010012*
X001249Y010016*
X001246Y01002*
X001244Y010024*
X001243Y010026*
X001241Y010029*
X001239Y01003*
X001239Y010031*
X001238Y010031*
X001233Y010036*
X001228Y01004*
X001222Y010044*
X001216Y010047*
X00121Y010049*
X001204Y010051*
X001198Y010053*
X001192Y010055*
X001186Y010056*
X001181Y010057*
X001176Y010057*
X001172Y010058*
X001169*
X001167Y010058*
X001165*
X001164*
Y009838*
X00116Y009837*
X001155Y009837*
X001153Y009837*
X001152*
X001151*
X00115*
X001147*
X001144Y009836*
X001141*
X001137*
X001135*
X001133*
X001131*
X001131*
X001118Y009837*
X001107Y009838*
X001097Y009839*
X001092Y00984*
X001088Y009841*
X001084Y009842*
X001081Y009843*
X001077Y009843*
X001075Y009844*
X001073Y009845*
X001072Y009845*
X00107Y009845*
X00107*
X00106Y009849*
X001051Y009853*
X001044Y009857*
X001037Y009862*
X001034Y009864*
X001032Y009866*
X00103Y009868*
X001028Y009869*
X001026Y00987*
X001025Y009871*
X001025Y009871*
X001024Y009872*
X001018Y009879*
X001011Y009886*
X001007Y009893*
X001002Y009899*
X000999Y009905*
X000998Y009908*
X000997Y00991*
X000996Y009912*
X000995Y009913*
X000995Y009914*
Y009914*
X000991Y009924*
X000989Y009934*
X000987Y009944*
X000986Y009953*
X000985Y009957*
Y009961*
X000985Y009964*
X000984Y009967*
Y009973*
X000985Y009985*
X000986Y009996*
X000989Y010007*
X00099Y010011*
X000991Y010015*
X000992Y01002*
X000993Y010023*
X000994Y010026*
X000996Y010028*
X000996Y01003*
X000997Y010032*
X000998Y010033*
Y010033*
X001003Y010042*
X001009Y010051*
X001015Y010059*
X001021Y010065*
X001025Y010071*
X001028Y010073*
X00103Y010074*
X001031Y010076*
X001032Y010077*
X001033Y010077*
X001033Y010078*
X001042Y010084*
X001051Y01009*
X001059Y010095*
X001067Y010099*
X001071Y0101*
X001075Y010102*
X001077Y010103*
X00108Y010104*
X001082Y010105*
X001084Y010105*
X001085Y010106*
X001085*
X001096Y010109*
X001107Y010111*
X001118Y010113*
X001127Y010114*
X001132Y010114*
X001136Y010115*
X001139*
X001142Y010115*
X001145*
X001146*
X001147*
X001148*
X001162Y010115*
G37*
G36*
X001304Y009293D02*
X001304Y00928D01*
X001303Y009268*
X001302Y009262*
X001302Y009256*
X001301Y009251*
X0013Y009246*
X001299Y009242*
X001298Y009238*
X001298Y009235*
X001297Y009233*
X001297Y00923*
X001296Y009229*
X001296Y009228*
Y009227*
X001293Y009217*
X001289Y009207*
X001285Y009199*
X001281Y009191*
X001279Y009188*
X001278Y009185*
X001276Y009183*
X001275Y009181*
X001274Y009179*
X001273Y009178*
X001272Y009177*
Y009177*
X001266Y00917*
X00126Y009163*
X001253Y009158*
X001247Y009153*
X001242Y00915*
X00124Y009148*
X001238Y009147*
X001236Y009146*
X001235Y009145*
X001235Y009145*
X001234*
X001226Y009141*
X001217Y009139*
X001208Y009136*
X0012Y009135*
X001196Y009135*
X001193Y009134*
X001189Y009134*
X001187Y009134*
X001185*
X001184*
X001183*
X001182*
X001175Y009134*
X001168Y009135*
X001162Y009136*
X001156Y009137*
X001152Y009138*
X001149Y009139*
X001146Y00914*
X001146Y00914*
X00114Y009143*
X001134Y009146*
X00113Y009149*
X001126Y009152*
X001122Y009154*
X00112Y009156*
X001118Y009158*
X001118Y009158*
X001113Y009162*
X001109Y009167*
X001106Y009171*
X001103Y009175*
X001101Y009178*
X0011Y009181*
X001099Y009183*
X001098Y009184*
X001095Y009189*
X001093Y009195*
X001091Y0092*
X00109Y009205*
X001089Y009209*
X001088Y009212*
X001087Y009214*
Y009215*
X001085Y009209*
X001083Y009202*
X00108Y009197*
X001077Y009192*
X001074Y009187*
X001072Y009183*
X001068Y009179*
X001066Y009176*
X001063Y009173*
X00106Y009171*
X001058Y009169*
X001056Y009167*
X001055Y009166*
X001053Y009165*
X001053Y009164*
X001052*
X001048Y009161*
X001043Y009159*
X001033Y009155*
X001024Y009152*
X001015Y00915*
X001011Y00915*
X001007Y009149*
X001004Y009149*
X001001*
X000998Y009148*
X000997*
X000996*
X000995*
X000986Y009149*
X000977Y00915*
X00097Y009152*
X000962Y009154*
X000955Y009157*
X000949Y009161*
X000943Y009165*
X000938Y009169*
X000933Y009174*
X000928Y009179*
X000924Y009185*
X00092Y009191*
X000916Y009197*
X000913Y009203*
X000908Y009216*
X000904Y009228*
X000901Y009241*
X000899Y009252*
X000898Y009257*
X000897Y009262*
X000897Y009267*
X000896Y009271*
X000896Y009274*
Y009277*
X000896Y00928*
Y009398*
X001304*
Y009293*
G37*
G36*
X001163Y009067D02*
X001176Y009066D01*
X001182Y009065*
X001188Y009064*
X001193Y009063*
X001198Y009062*
X001203Y009061*
X001206Y00906*
X00121Y009059*
X001213Y009059*
X001215Y009058*
X001217Y009058*
X001218Y009057*
X001218*
X001229Y009053*
X001239Y009049*
X001247Y009044*
X001251Y009042*
X001255Y00904*
X001258Y009038*
X001261Y009035*
X001263Y009034*
X001265Y009032*
X001267Y009031*
X001268Y00903*
X001268Y00903*
X001269Y009029*
X001276Y009022*
X001282Y009014*
X001287Y009007*
X001292Y008999*
X001295Y008993*
X001296Y00899*
X001297Y008988*
X001298Y008986*
X001299Y008985*
X001299Y008984*
Y008984*
X001303Y008973*
X001305Y008963*
X001307Y008953*
X001308Y008943*
X001309Y008939*
X001309Y008935*
X001309Y008932*
Y008929*
X00131Y008926*
Y008923*
X001309Y00891*
X001308Y008898*
X001307Y008893*
X001306Y008888*
X001305Y008883*
X001304Y008879*
X001303Y008874*
X001302Y008871*
X001301Y008868*
X001299Y008865*
X001299Y008863*
X001298Y008862*
X001298Y008861*
Y00886*
X001293Y00885*
X001287Y008841*
X001282Y008833*
X001276Y008826*
X001274Y008823*
X001271Y008821*
X001269Y008818*
X001268Y008816*
X001266Y008815*
X001265Y008814*
X001264Y008813*
X001264Y008813*
X001255Y008806*
X001247Y0088*
X001238Y008795*
X00123Y008791*
X001226Y008789*
X001222Y008787*
X001219Y008786*
X001217Y008785*
X001215Y008784*
X001213Y008784*
X001212Y008783*
X001212*
X0012Y00878*
X001188Y008777*
X001177Y008775*
X001172Y008774*
X001167Y008774*
X001162Y008773*
X001158*
X001154Y008773*
X001151Y008773*
X001148*
X001146*
X001145*
X001145*
X001131Y008773*
X001118Y008774*
X001111Y008775*
X001106Y008776*
X001101Y008777*
X001096Y008778*
X001091Y008779*
X001087Y00878*
X001084Y00878*
X001081Y008781*
X001079Y008782*
X001077Y008782*
X001076Y008783*
X001076*
X001065Y008787*
X001056Y008791*
X001047Y008796*
X001043Y008798*
X00104Y008801*
X001036Y008803*
X001034Y008805*
X001031Y008807*
X001029Y008808*
X001028Y00881*
X001027Y008811*
X001026Y008811*
X001026Y008811*
X001019Y008819*
X001013Y008826*
X001007Y008833*
X001003Y008841*
X001Y008847*
X000998Y008849*
X000997Y008852*
X000996Y008854*
X000996Y008855*
X000995Y008856*
Y008856*
X000992Y008867*
X000989Y008877*
X000987Y008887*
X000986Y008897*
X000985Y008901*
X000985Y008905*
X000985Y008908*
X000984Y008911*
Y008917*
X000985Y00893*
X000986Y008941*
X000987Y008947*
X000988Y008952*
X000989Y008957*
X00099Y008962*
X000992Y008966*
X000993Y008969*
X000994Y008972*
X000994Y008975*
X000996Y008977*
X000996Y008979*
X000997Y00898*
Y00898*
X001001Y00899*
X001007Y008999*
X001013Y009007*
X001018Y009014*
X001021Y009017*
X001023Y009019*
X001025Y009022*
X001027Y009024*
X001028Y009025*
X00103Y009026*
X00103Y009027*
X001031Y009027*
X001039Y009034*
X001048Y00904*
X001056Y009045*
X001065Y009049*
X001068Y009051*
X001072Y009053*
X001075Y009054*
X001077Y009055*
X001079Y009056*
X001081Y009057*
X001082Y009057*
X001082*
X001094Y00906*
X001106Y009063*
X001117Y009065*
X001122Y009065*
X001127Y009066*
X001132Y009066*
X001136*
X00114Y009067*
X001143Y009067*
X001145*
X001147*
X001149*
X001149*
X001163Y009067*
G37*
G36*
X001227Y008702D02*
X001234Y008701D01*
X00124Y008701*
X001245Y0087*
X00125Y008698*
X001253Y008697*
X001255Y008697*
X001255Y008697*
X001256*
X001262Y008694*
X001267Y008692*
X001272Y008688*
X001276Y008686*
X001279Y008683*
X001282Y008681*
X001283Y008679*
X001284Y008679*
X001288Y008674*
X001292Y008669*
X001295Y008663*
X001298Y008658*
X0013Y008654*
X001302Y00865*
X001302Y008649*
X001303Y008648*
X001303Y008647*
Y008647*
X001305Y00864*
X001307Y008632*
X001308Y008624*
X001309Y008617*
X001309Y008611*
Y008608*
X00131Y008606*
Y008601*
X001309Y008591*
X001308Y008581*
X001306Y008571*
X001304Y008562*
X001303Y008559*
X001302Y008556*
X001301Y008553*
X0013Y00855*
X001299Y008549*
X001299Y008547*
X001298Y008546*
Y008546*
X001294Y008536*
X001288Y008526*
X001282Y008518*
X001276Y00851*
X001273Y008506*
X001271Y008503*
X001268Y0085*
X001266Y008498*
X001264Y008496*
X001263Y008495*
X001262Y008494*
X001262Y008494*
X001304Y008492*
Y008443*
X001088*
X001078Y008444*
X001069Y008445*
X001062Y008446*
X001055Y008448*
X00105Y008449*
X001047Y00845*
X001045Y008451*
X001044Y008451*
X001043Y008452*
X001042Y008452*
X001042*
X001035Y008456*
X001029Y008459*
X001023Y008464*
X001019Y008467*
X001015Y008471*
X001012Y008474*
X001011Y008476*
X00101Y008476*
Y008476*
X001006Y008483*
X001002Y008489*
X000998Y008496*
X000996Y008501*
X000994Y008507*
X000993Y008509*
X000992Y008511*
X000992Y008513*
X000991Y008514*
X000991Y008515*
Y008515*
X000989Y008524*
X000987Y008533*
X000986Y008541*
X000985Y008549*
Y008553*
X000985Y008556*
Y008559*
X000984Y008561*
Y008572*
X000985Y008578*
X000985Y008583*
Y008587*
X000985Y008592*
X000986Y008594*
X000986Y008596*
Y008597*
X000987Y008603*
X000988Y008608*
X000989Y008613*
X000989Y008618*
X00099Y008621*
X00099Y008624*
X000991Y008626*
Y008627*
X000992Y008632*
X000993Y008637*
X000994Y008641*
X000995Y008645*
X000996Y008649*
X000997Y008651*
X000997Y008653*
X000998Y008653*
X000999Y008658*
X001Y008662*
X001001Y008666*
X001002Y008669*
X001003Y008672*
X001004Y008674*
X001005Y008676*
Y008676*
X001053*
X00105Y008666*
X001046Y008656*
X001043Y008647*
X001041Y008639*
X00104Y008636*
X001039Y008633*
X001039Y00863*
X001038Y008627*
X001037Y008625*
X001037Y008624*
X001037Y008623*
Y008623*
X001035Y008613*
X001033Y008604*
X001032Y008595*
X001031Y008587*
X001031Y008583*
Y008577*
X001031Y008575*
Y00857*
X001031Y008564*
X001031Y008558*
X001032Y008552*
X001033Y008547*
X001034Y008542*
X001036Y008537*
X001037Y008533*
X001039Y00853*
X001041Y008527*
X001042Y008524*
X001044Y008522*
X001045Y00852*
X001046Y008518*
X001047Y008517*
X001047Y008517*
X001048Y008516*
X001051Y008513*
X001054Y00851*
X001058Y008508*
X001061Y008506*
X001069Y008503*
X001076Y0085*
X001082Y008499*
X001085Y008499*
X001087Y008499*
X001089Y008498*
X001091*
X001092*
X001092*
X001119*
Y008564*
X00112Y008576*
X00112Y008588*
X001122Y008599*
X001124Y008609*
X001126Y008618*
X001128Y008627*
X001131Y008634*
X001133Y008641*
X001135Y008647*
X001138Y008653*
X00114Y008657*
X001142Y008661*
X001144Y008663*
X001145Y008666*
X001146Y008667*
X001146Y008667*
X001152Y008674*
X001157Y008679*
X001163Y008684*
X001169Y008687*
X001175Y008691*
X001182Y008694*
X001188Y008696*
X001193Y008698*
X001199Y0087*
X001204Y008701*
X001209Y008701*
X001213Y008702*
X001216Y008702*
X001218Y008702*
X00122*
X00122*
X001227Y008702*
G37*
G36*
X001304Y008274D02*
X001103D01*
X001096Y008269*
X00109Y008263*
X001084Y008259*
X001079Y008255*
X001075Y008251*
X001073Y008248*
X001071Y008247*
X00107Y008246*
X001065Y008242*
X001061Y008237*
X001057Y008232*
X001054Y008229*
X001051Y008226*
X001049Y008223*
X001048Y008222*
X001048Y008221*
X001045Y008217*
X001042Y008213*
X00104Y008209*
X001039Y008205*
X001037Y008203*
X001036Y0082*
X001035Y008199*
Y008198*
X001034Y008194*
X001033Y008191*
X001032Y008187*
X001032Y008183*
Y00818*
X001031Y008178*
Y008177*
X001032Y008172*
X001032Y008168*
X001034Y00816*
X001037Y008154*
X001041Y008148*
X001044Y008144*
X001047Y008141*
X001049Y008139*
X00105Y008139*
X00105*
X001054Y008136*
X001058Y008135*
X001067Y008131*
X001077Y008129*
X001087Y008128*
X001092Y008127*
X001096Y008127*
X0011*
X001103Y008126*
X001106*
X001108*
X00111*
X00111*
Y008071*
X001099*
X001088Y008071*
X001078Y008073*
X001069Y008074*
X001061Y008076*
X001053Y008078*
X001046Y00808*
X00104Y008082*
X001034Y008085*
X00103Y008087*
X001026Y008089*
X001022Y008091*
X00102Y008092*
X001018Y008094*
X001017Y008094*
X001016Y008095*
X001011Y0081*
X001006Y008105*
X001001Y008111*
X000998Y008117*
X000995Y008123*
X000992Y008129*
X00099Y008135*
X000988Y008141*
X000987Y008147*
X000986Y008152*
X000985Y008156*
X000985Y008161*
Y008164*
X000984Y008167*
Y008174*
X000985Y008179*
X000987Y008189*
X000989Y008198*
X000992Y008206*
X000993Y00821*
X000995Y008213*
X000996Y008216*
X000997Y008219*
X000998Y00822*
X000999Y008222*
X000999Y008223*
X001Y008223*
X001003Y008228*
X001006Y008233*
X001014Y008243*
X001022Y008252*
X00103Y008261*
X001033Y008264*
X001037Y008268*
X00104Y008271*
X001043Y008273*
X001045Y008275*
X001047Y008277*
X001048Y008278*
X001048Y008278*
X00099Y00828*
Y008329*
X001304*
Y008274*
G37*
G36*
X001167Y008006D02*
X001178Y008005D01*
X001189Y008004*
X001194Y008003*
X001199Y008003*
X001203Y008002*
X001206Y008002*
X00121Y008001*
X001212Y008001*
X001215Y008*
X001216Y008*
X001217Y008*
X001218*
X001228Y007997*
X001237Y007993*
X001246Y00799*
X001253Y007987*
X001256Y007985*
X001259Y007984*
X001261Y007983*
X001263Y007981*
X001265Y007981*
X001266Y00798*
X001267Y007979*
X001267*
X001274Y007974*
X00128Y007968*
X001286Y007962*
X00129Y007957*
X001294Y007952*
X001296Y007948*
X001297Y007947*
X001298Y007946*
X001298Y007945*
Y007945*
X001302Y007937*
X001305Y007929*
X001307Y007921*
X001308Y007914*
X001309Y007907*
X001309Y007905*
Y007902*
X00131Y0079*
Y007898*
X001309Y007892*
X001309Y007886*
X001307Y007876*
X001305Y007866*
X001303Y007862*
X001302Y007857*
X0013Y007854*
X001299Y00785*
X001297Y007847*
X001296Y007845*
X001295Y007843*
X001295Y007841*
X001294Y007841*
Y00784*
X001291Y007836*
X001287Y007831*
X001279Y007821*
X001271Y007813*
X001263Y007806*
X00126Y007802*
X001256Y007799*
X001253Y007797*
X00125Y007795*
X001248Y007793*
X001246Y007792*
X001245Y007791*
X001245Y007791*
X001304Y007789*
Y00774*
X000862*
Y007795*
X000994*
X000992Y007805*
X000991Y00781*
X00099Y007814*
X000989Y007818*
X000989Y007821*
X000989Y007823*
Y007823*
X000987Y007834*
X000987Y007839*
Y007843*
X000986Y007847*
Y007853*
X000987Y007865*
X000988Y007878*
X00099Y007888*
X000991Y007893*
X000992Y007897*
X000993Y007901*
X000994Y007905*
X000995Y007908*
X000996Y007911*
X000997Y007913*
X000997Y007915*
X000998Y007916*
Y007916*
X001002Y007926*
X001007Y007935*
X001013Y007944*
X001018Y007951*
X001021Y007954*
X001023Y007956*
X001025Y007959*
X001027Y007961*
X001028Y007962*
X001029Y007963*
X00103Y007964*
X00103Y007964*
X001039Y007971*
X001048Y007977*
X001056Y007983*
X001065Y007987*
X001068Y007989*
X001072Y007991*
X001075Y007992*
X001078Y007993*
X00108Y007994*
X001082Y007995*
X001083Y007995*
X001083*
X001095Y007999*
X001107Y008002*
X001119Y008003*
X001125Y008004*
X00113Y008005*
X001135Y008005*
X00114Y008006*
X001144Y008006*
X001147*
X00115Y008006*
X001152*
X001153*
X001154*
X001167Y008006*
G37*
G36*
X001304Y0072D02*
Y007125D01*
X000896Y006986*
Y007045*
X001171Y007134*
X001252Y00716*
X001171Y007185*
X000896Y007273*
Y007335*
X001304Y0072*
G37*
G36*
X001008Y006923D02*
X000955Y006825D01*
X001253*
Y00693*
X001304*
Y006673*
X001253*
Y006764*
X000894*
Y006813*
X000962Y006943*
X001008Y006923*
G37*
%LNprobe-2*%
%LPC*%
G36*
X00111Y011454D02*
X000942D01*
Y011397*
X000942Y011389*
X000943Y011381*
X000944Y011374*
X000945Y011367*
X000947Y01136*
X000948Y011354*
X00095Y011349*
X000952Y011344*
X000954Y01134*
X000956Y011336*
X000958Y011333*
X000959Y01133*
X000961Y011328*
X000962Y011326*
X000963Y011326*
X000963Y011325*
X000967Y011321*
X000972Y011317*
X000976Y011313*
X000981Y01131*
X000986Y011308*
X000991Y011306*
X000996Y011304*
X001001Y011302*
X001006Y011301*
X00101Y011301*
X001014Y0113*
X001017Y0113*
X001019Y011299*
X001022*
X001023*
X001023*
X001031Y0113*
X001039Y0113*
X001045Y011302*
X001052Y011303*
X001058Y011306*
X001063Y011308*
X001068Y01131*
X001072Y011313*
X001076Y011315*
X001079Y011318*
X001082Y01132*
X001084Y011322*
X001086Y011324*
X001087Y011325*
X001088Y011326*
X001089Y011326*
X001092Y011332*
X001095Y011337*
X001099Y011343*
X001101Y01135*
X001103Y011356*
X001105Y011362*
X001107Y011374*
X001108Y01138*
X001109Y011385*
X001109Y01139*
X00111Y011394*
X00111Y011397*
Y011454*
G37*
G36*
X000728Y011125D02*
X000414D01*
Y011078*
X000415Y011065*
X000416Y011054*
X000417Y011049*
X000417Y011044*
X000418Y011039*
X000419Y011035*
X000419Y011031*
X00042Y011028*
X000421Y011025*
X000421Y011023*
X000422Y011021*
X000422Y01102*
X000423Y011019*
Y011019*
X000426Y01101*
X00043Y011002*
X000435Y010994*
X000439Y010988*
X000443Y010983*
X000446Y01098*
X000448Y010979*
X000449Y010978*
X000449Y010977*
X00045Y010977*
X000457Y010971*
X000465Y010966*
X000473Y010962*
X000481Y010958*
X000488Y010956*
X00049Y010955*
X000493Y010954*
X000495Y010953*
X000497Y010953*
X000498Y010952*
X000498*
X00051Y010949*
X000522Y010947*
X000535Y010946*
X00054Y010945*
X000546Y010945*
X000551Y010945*
X000556Y010944*
X00056*
X000564Y010944*
X000567*
X000569*
X000571*
X000571*
X000586Y010944*
X000599Y010945*
X000611Y010947*
X000623Y01095*
X000634Y010953*
X000644Y010957*
X000653Y010961*
X000662Y010966*
X00067Y010971*
X000677Y010976*
X000684Y010982*
X00069Y010988*
X000695Y010994*
X0007Y011001*
X000704Y011007*
X000708Y011014*
X000712Y01102*
X000715Y011027*
X000717Y011033*
X00072Y011039*
X000723Y011051*
X000724Y011057*
X000725Y011062*
X000726Y011067*
X000727Y011071*
X000727Y011075*
X000727Y011078*
X000728Y01108*
Y011125*
G37*
G36*
X001152Y010771D02*
X00115D01*
X001149*
X001147*
X001147*
X001138Y01077*
X001131Y01077*
X001123Y010769*
X001116Y010768*
X001111Y010767*
X001109Y010767*
X001107Y010767*
X001105Y010766*
X001104*
X001103Y010766*
X001103*
X001095Y010764*
X001089Y010761*
X001082Y010759*
X001077Y010756*
X001072Y010753*
X001069Y010751*
X001067Y01075*
X001066Y01075*
X001066*
X00106Y010745*
X001055Y010741*
X001051Y010736*
X001047Y010731*
X001044Y010727*
X001042Y010724*
X001041Y010722*
X00104Y010722*
Y010721*
X001037Y010714*
X001035Y010707*
X001033Y0107*
X001032Y010694*
X001031Y010688*
Y010685*
X001031Y010683*
Y010679*
X001031Y010672*
X001032Y010665*
X001033Y010658*
X001034Y010652*
X001036Y010648*
X001037Y010644*
X001037Y010643*
X001038Y010642*
X001038Y010642*
Y010641*
X001041Y010635*
X001045Y01063*
X001048Y010625*
X001052Y010621*
X001055Y010617*
X001058Y010615*
X001059Y010613*
X00106Y010613*
X001066Y010608*
X001072Y010605*
X001078Y010601*
X001084Y010599*
X001089Y010597*
X001093Y010595*
X001094Y010595*
X001095Y010595*
X001096Y010594*
X001096*
X001105Y010592*
X001113Y01059*
X001122Y010589*
X00113Y010588*
X001134*
X001137Y010588*
X00114*
X001142Y010588*
X001144*
X001146*
X001147*
X001147*
X001156Y010588*
X001164Y010588*
X001172Y010589*
X001178Y01059*
X001184Y010591*
X001186Y010591*
X001188Y010592*
X00119Y010592*
X001191*
X001192Y010593*
X001192*
X0012Y010595*
X001206Y010598*
X001213Y0106*
X001218Y010603*
X001222Y010605*
X001226Y010607*
X001228Y010609*
X001228Y010609*
X001229*
X001234Y010614*
X001239Y010618*
X001244Y010623*
X001247Y010627*
X001251Y010631*
X001253Y010635*
X001254Y010637*
X001254Y010637*
Y010638*
X001258Y010644*
X00126Y010651*
X001261Y010658*
X001263Y010665*
X001263Y010671*
Y010673*
X001264Y010675*
Y010679*
X001263Y010687*
X001263Y010694*
X001261Y010701*
X00126Y010707*
X001259Y010711*
X001258Y010715*
X001257Y010716*
X001257Y010717*
X001256Y010717*
Y010718*
X001253Y010724*
X00125Y010729*
X001246Y010734*
X001243Y010738*
X001239Y010742*
X001237Y010744*
X001235Y010746*
X001235Y010746*
X001229Y010751*
X001223Y010754*
X001217Y010757*
X001211Y01076*
X001206Y010762*
X001202Y010764*
X0012Y010764*
X001199Y010764*
X001199Y010765*
X001198*
X00119Y010767*
X001181Y010768*
X001172Y010769*
X001164Y01077*
X001161*
X001158Y01077*
X001154*
X001152Y010771*
G37*
G36*
X001251Y010399D02*
X001098D01*
X001092Y010394*
X001085Y010389*
X00108Y010384*
X001076Y01038*
X001072Y010377*
X001069Y010374*
X001068Y010373*
X001067Y010372*
X001062Y010367*
X001058Y010363*
X001055Y010359*
X001052Y010355*
X00105Y010352*
X001048Y01035*
X001047Y010348*
X001047Y010348*
X001044Y010344*
X001041Y010339*
X00104Y010336*
X001038Y010333*
X001037Y01033*
X001036Y010328*
X001035Y010326*
Y010326*
X001033Y010318*
X001033Y010314*
X001032Y010311*
X001032Y010309*
Y010305*
X001032Y010299*
X001033Y010293*
X001035Y010288*
X001036Y010284*
X001037Y010281*
X001039Y010278*
X00104Y010277*
X00104Y010276*
X001044Y010271*
X001048Y010268*
X001051Y010264*
X001055Y010261*
X001058Y010259*
X001061Y010257*
X001063Y010256*
X001063Y010256*
X001064*
X001069Y010253*
X001075Y010251*
X001081Y010249*
X001087Y010247*
X001092Y010246*
X001095Y010245*
X001097Y010245*
X001098Y010244*
X001099*
X001099*
X001107Y010243*
X001115Y010242*
X001122Y010242*
X001129Y010241*
X001135*
X001138Y010241*
X00114*
X001142*
X001143*
X001144*
X001144*
X001156Y010241*
X001167Y010242*
X001172Y010242*
X001177Y010243*
X001182Y010244*
X001185Y010244*
X001189Y010245*
X001192Y010246*
X001195Y010247*
X001197Y010247*
X001199Y010248*
X0012Y010248*
X001201Y010249*
X001201*
X001209Y010252*
X001217Y010255*
X001223Y010258*
X001228Y010262*
X001233Y010265*
X001236Y010267*
X001237Y010268*
X001238Y010269*
X001243Y010274*
X001247Y010279*
X001251Y010284*
X001253Y010289*
X001255Y010293*
X001257Y010296*
X001258Y010299*
X001258Y010299*
Y010299*
X00126Y010305*
X001261Y010312*
X001262Y010318*
X001263Y010324*
X001263Y010328*
X001264Y010332*
Y010335*
X001263Y010346*
X001263Y010352*
X001262Y010356*
X001261Y010361*
X001261Y010364*
X00126Y010366*
Y010367*
X001259Y010373*
X001257Y010379*
X001256Y010384*
X001254Y010389*
X001253Y010393*
X001252Y010396*
X001251Y010398*
X001251Y010398*
Y010399*
G37*
G36*
X001123Y010058D02*
X001115Y010057D01*
X001108Y010056*
X001101Y010055*
X001095Y010054*
X001091Y010052*
X001087Y010051*
X001086Y010051*
X001085Y01005*
X001085Y01005*
X001084*
X001078Y010047*
X001072Y010045*
X001067Y010042*
X001062Y010039*
X001059Y010037*
X001056Y010035*
X001055Y010033*
X001054Y010033*
X00105Y010029*
X001046Y010024*
X001042Y01002*
X00104Y010016*
X001037Y010013*
X001036Y01001*
X001035Y010008*
X001035Y010008*
X001032Y010002*
X001031Y009996*
X00103Y009991*
X001028Y009986*
X001028Y009981*
X001028Y009978*
Y009975*
X001028Y009967*
X001029Y009961*
X00103Y009954*
X001031Y009949*
X001033Y009945*
X001034Y009941*
X001035Y009939*
X001035Y009939*
X001038Y009933*
X001041Y009928*
X001044Y009923*
X001047Y00992*
X00105Y009917*
X001052Y009914*
X001054Y009913*
X001055Y009913*
X001059Y009909*
X001065Y009906*
X001069Y009903*
X001074Y009901*
X001078Y009899*
X001082Y009898*
X001084Y009898*
X001084Y009897*
X001084*
X001091Y009896*
X001098Y009895*
X001104Y009894*
X00111Y009893*
X001115Y009893*
X001119*
X00112*
X001121*
X001122*
X001123*
Y010058*
G37*
G36*
X00107Y009343D02*
X000942D01*
Y009286*
X000943Y009277*
X000943Y009269*
X000944Y009263*
X000945Y009257*
X000946Y009252*
X000947Y009249*
X000947Y009247*
X000947Y009246*
X000949Y009241*
X000951Y009235*
X000954Y009231*
X000956Y009227*
X000957Y009225*
X000959Y009222*
X00096Y009221*
X00096Y009221*
X000963Y009218*
X000966Y009215*
X000969Y009212*
X000973Y009211*
X000975Y009209*
X000977Y009208*
X000979Y009208*
X000979*
X000983Y009206*
X000988Y009205*
X000992Y009205*
X000995Y009204*
X000998*
X001001Y009204*
X001002*
X001003*
X001009Y009204*
X001015Y009205*
X00102Y009206*
X001024Y009207*
X001028Y009208*
X001031Y009209*
X001032Y00921*
X001033Y00921*
X001037Y009212*
X001042Y009215*
X001045Y009218*
X001048Y009221*
X001051Y009223*
X001052Y009225*
X001054Y009227*
X001054Y009227*
X001057Y009231*
X00106Y009236*
X001062Y00924*
X001064Y009244*
X001065Y009248*
X001066Y009251*
X001066Y009253*
X001067Y009253*
Y009254*
X001068Y00926*
X001069Y009265*
X001069Y009271*
X00107Y009276*
Y009281*
X00107Y009285*
Y009343*
G37*
G36*
X001257D02*
X001117D01*
Y009286*
X001117Y009278*
X001117Y00927*
X001118Y009263*
X001119Y009258*
X00112Y009253*
X001121Y009249*
X001121Y009247*
Y009246*
X001121Y009246*
Y009246*
X001123Y009239*
X001125Y009233*
X001128Y009228*
X00113Y009224*
X001132Y00922*
X001133Y009217*
X001134Y009216*
X001135Y009215*
X001138Y009211*
X001142Y009207*
X001145Y009203*
X001149Y009201*
X001151Y009199*
X001154Y009197*
X001155Y009196*
X001156Y009196*
X001161Y009194*
X001166Y009192*
X00117Y009191*
X001175Y00919*
X001178Y00919*
X001181Y009189*
X001183*
X001184*
X001184*
X001191Y00919*
X001197Y00919*
X001203Y009191*
X001209Y009193*
X001213Y009195*
X001218Y009196*
X001222Y009199*
X001226Y009201*
X001229Y009203*
X001232Y009205*
X001234Y009207*
X001236Y009209*
X001238Y009211*
X001239Y009212*
X001239Y009212*
X001239Y009213*
X001243Y009217*
X001245Y009222*
X001248Y009228*
X00125Y009234*
X001253Y009246*
X001255Y009257*
X001256Y009263*
X001256Y009268*
X001256Y009272*
X001257Y009276*
X001257Y00928*
Y009343*
G37*
G36*
X001152Y009011D02*
X00115D01*
X001149*
X001147*
X001147*
X001138Y009011*
X001131Y009011*
X001123Y00901*
X001116Y009009*
X001111Y009008*
X001109Y009008*
X001107Y009007*
X001105Y009007*
X001104*
X001103Y009007*
X001103*
X001095Y009005*
X001089Y009002*
X001082Y008999*
X001077Y008997*
X001072Y008994*
X001069Y008992*
X001067Y008991*
X001066Y00899*
X001066*
X00106Y008986*
X001055Y008981*
X001051Y008976*
X001047Y008972*
X001044Y008968*
X001042Y008965*
X001041Y008963*
X00104Y008962*
Y008962*
X001037Y008955*
X001035Y008948*
X001033Y008941*
X001032Y008934*
X001031Y008929*
Y008926*
X001031Y008924*
Y00892*
X001031Y008912*
X001032Y008905*
X001033Y008899*
X001034Y008893*
X001036Y008889*
X001037Y008885*
X001037Y008884*
X001038Y008883*
X001038Y008882*
Y008882*
X001041Y008876*
X001045Y00887*
X001048Y008865*
X001052Y008861*
X001055Y008858*
X001058Y008855*
X001059Y008854*
X00106Y008853*
X001066Y008849*
X001072Y008845*
X001078Y008842*
X001084Y008839*
X001089Y008838*
X001093Y008836*
X001094Y008836*
X001095Y008835*
X001096Y008835*
X001096*
X001105Y008833*
X001113Y008831*
X001122Y00883*
X00113Y008829*
X001134*
X001137Y008829*
X00114*
X001142Y008828*
X001144*
X001146*
X001147*
X001147*
X001156Y008829*
X001164Y008829*
X001172Y00883*
X001178Y008831*
X001184Y008832*
X001186Y008832*
X001188Y008833*
X00119Y008833*
X001191*
X001192Y008833*
X001192*
X0012Y008836*
X001206Y008838*
X001213Y008841*
X001218Y008844*
X001222Y008846*
X001226Y008848*
X001228Y008849*
X001228Y00885*
X001229*
X001234Y008854*
X001239Y008859*
X001244Y008864*
X001247Y008868*
X001251Y008872*
X001253Y008875*
X001254Y008878*
X001254Y008878*
Y008878*
X001258Y008885*
X00126Y008892*
X001261Y008899*
X001263Y008906*
X001263Y008911*
Y008914*
X001264Y008916*
Y00892*
X001263Y008928*
X001263Y008935*
X001261Y008941*
X00126Y008947*
X001259Y008952*
X001258Y008955*
X001257Y008957*
X001257Y008958*
X001256Y008958*
Y008958*
X001253Y008964*
X00125Y00897*
X001246Y008975*
X001243Y008979*
X001239Y008982*
X001237Y008985*
X001235Y008987*
X001235Y008987*
X001229Y008991*
X001223Y008995*
X001217Y008998*
X001211Y009001*
X001206Y009002*
X001202Y009004*
X0012Y009005*
X001199Y009005*
X001199Y009005*
X001198*
X00119Y009007*
X001181Y009009*
X001172Y00901*
X001164Y009011*
X001161*
X001158Y009011*
X001154*
X001152Y009011*
G37*
G36*
X001221Y008645D02*
X00122D01*
X001219*
X001218*
X001213Y008644*
X001209Y008644*
X001205Y008643*
X001202Y008642*
X001199Y008642*
X001196Y008641*
X001195Y008641*
X001195Y00864*
X001191Y008638*
X001187Y008636*
X001185Y008634*
X001182Y008632*
X00118Y008629*
X001178Y008628*
X001177Y008627*
X001177Y008626*
X001174Y008623*
X001172Y008619*
X00117Y008615*
X001168Y008611*
X001167Y008608*
X001166Y008605*
X001166Y008603*
X001165Y008602*
X001164Y008597*
X001163Y008591*
X001162Y008585*
X001161Y008579*
Y008575*
X001161Y008571*
Y008498*
X001217*
X001226Y008508*
X001233Y008518*
X001239Y008526*
X001244Y008534*
X001246Y008537*
X001248Y008541*
X00125Y008543*
X001251Y008545*
X001252Y008547*
X001252Y008549*
X001253Y008549*
Y00855*
X001257Y008558*
X001259Y008566*
X001261Y008574*
X001263Y00858*
X001263Y008585*
X001264Y008587*
Y008589*
X001264Y008591*
Y008598*
X001263Y008602*
X001263Y008607*
X001262Y00861*
X001262Y008613*
X001261Y008615*
X001261Y008617*
Y008617*
X001259Y00862*
X001258Y008624*
X001256Y008626*
X001254Y008628*
X001253Y00863*
X001252Y008632*
X001251Y008633*
X001251Y008633*
X001245Y008637*
X001241Y00864*
X001239Y008641*
X001237Y008641*
X001236Y008642*
X001236*
X001229Y008644*
X001227Y008644*
X001224Y008644*
X001221Y008645*
G37*
G36*
X001156Y007951D02*
X001153D01*
X001151*
X001151*
X00114Y00795*
X001129Y00795*
X001119Y007948*
X001111Y007947*
X001102Y007945*
X001095Y007943*
X001089Y007941*
X001083Y007938*
X001077Y007936*
X001073Y007934*
X001069Y007932*
X001066Y00793*
X001064Y007929*
X001062Y007927*
X001061Y007926*
X00106Y007926*
X001055Y007921*
X001051Y007916*
X001047Y00791*
X001044Y007905*
X001041Y007899*
X001039Y007893*
X001037Y007888*
X001035Y007882*
X001034Y007877*
X001033Y007872*
X001033Y007868*
X001032Y007864*
Y007861*
X001032Y007859*
Y007851*
X001032Y007845*
X001033Y007839*
X001033Y007834*
X001034Y00783*
X001034Y007827*
X001035Y007825*
Y007824*
X001036Y007819*
X001038Y007813*
X001039Y007808*
X001041Y007803*
X001042Y0078*
X001043Y007797*
X001044Y007795*
X001044Y007795*
X00119*
X001197Y007799*
X001203Y007804*
X001209Y007808*
X001214Y007813*
X001219Y007817*
X001223Y007821*
X001227Y007825*
X001231Y007829*
X001234Y007832*
X001237Y007834*
X001239Y007837*
X001241Y007839*
X001243Y007841*
X001244Y007842*
X001244Y007843*
X001245Y007843*
X001248Y007847*
X001251Y007851*
X001253Y007856*
X001255Y007859*
X001259Y007867*
X001261Y007874*
X001262Y007879*
X001262Y007881*
X001263Y007883*
X001263Y007885*
Y007887*
X001263Y007892*
X001262Y007898*
X001261Y007902*
X001259Y007907*
X001256Y007912*
X001254Y007915*
X001252Y007919*
X001249Y007922*
X001247Y007925*
X001244Y007927*
X001242Y007929*
X001239Y007931*
X001238Y007932*
X001236Y007933*
X001236Y007934*
X001235Y007934*
X00123Y007937*
X001223Y00794*
X001217Y007942*
X00121Y007944*
X001196Y007947*
X001183Y007949*
X001176Y007949*
X00117Y00795*
X001164Y00795*
X00116*
X001156Y007951*
G37*
%LNprobe-3*%
%LPD*%
G54D11*
X002653Y00575D02*
X002753Y00565D01*
X002653Y00575D02*
X002753Y00585D01*
Y00565D02*
Y00585D01*
X002553Y00575D02*
X002653D01*
Y005395D02*
Y006104D01*
X001903Y005395D02*
Y00565D01*
Y005395D02*
X003453D01*
Y005474*
X001903Y00585D02*
Y006104D01*
X003453*
Y006025D02*
Y006104D01*
X001853Y00565D02*
X001903D01*
X001853Y005395D02*
Y00565D01*
Y005395D02*
X001903D01*
X001853Y006104D02*
X001903D01*
X001853Y00585D02*
Y006104D01*
Y00585D02*
X001903D01*
G54D13*
X004053Y00595D02*
Y00565D01*
X003903*
X003853Y0057*
Y0059*
X003903Y00595*
X004053*
X003753Y00565D02*
X003653D01*
X003703*
Y00595*
X003753Y0059*
X00465Y0068D02*
X004699Y00675D01*
Y00665*
X00465Y0066*
X0046*
X00455Y00665*
Y00675*
X0045Y0068*
X00445*
X0044Y00675*
Y00665*
X00445Y0066*
X0044Y0069D02*
Y006999D01*
Y006949*
X004699*
X00465Y0069*
G54D22*
X0027Y011895D02*
D01*
X002698Y011895*
X002697Y011895*
X002695Y011894*
X002694Y011894*
X002693Y011894*
X002691Y011893*
X00269Y011892*
X002689Y011892*
X002688Y011891*
X002687Y01189*
X002686Y011889*
X002685Y011888*
X002684Y011887*
X002683Y011886*
X002682Y011885*
X002682Y011884*
X002681Y011882*
X002681Y011881*
X00268Y01188*
X00268Y011879*
X00268Y011877*
X00268Y011876*
Y011874*
X00268Y011873*
X00268Y011872*
X00268Y01187*
X002681Y011869*
X002681Y011868*
X002682Y011866*
X002682Y011865*
X002683Y011864*
X002684Y011863*
X002685Y011862*
X002686Y011861*
X002687Y01186*
X002688Y011859*
X002689Y011858*
X00269Y011858*
X002691Y011857*
X002693Y011857*
X002694Y011856*
X002695Y011856*
X002697Y011856*
X002698Y011855*
X0027Y011855*
D01*
X002701Y011855*
X002702Y011856*
X002704Y011856*
X002705Y011856*
X002706Y011857*
X002708Y011857*
X002709Y011858*
X00271Y011858*
X002711Y011859*
X002712Y01186*
X002713Y011861*
X002714Y011862*
X002715Y011863*
X002716Y011864*
X002717Y011865*
X002717Y011866*
X002718Y011868*
X002718Y011869*
X002719Y01187*
X002719Y011872*
X002719Y011873*
X002719Y011874*
Y011876*
X002719Y011877*
X002719Y011879*
X002719Y01188*
X002718Y011881*
X002718Y011882*
X002717Y011884*
X002717Y011885*
X002716Y011886*
X002715Y011887*
X002714Y011888*
X002713Y011889*
X002712Y01189*
X002711Y011891*
X00271Y011892*
X002709Y011892*
X002708Y011893*
X002706Y011894*
X002705Y011894*
X002704Y011894*
X002702Y011895*
X002701Y011895*
X0027Y011895*
G54D23*
X001558Y00658D02*
Y011619D01*
Y00658D02*
X003841D01*
Y011619*
X001558D02*
X003841D01*
M02*